<svg width="43" height="42" viewBox="0 0 43 42" fill="none" xmlns="http://www.w3.org/2000/svg">
<path d="M21.518 42C10.0611 42 0.739746 32.5778 0.739746 20.9969C0.739746 9.41604 10.0611 0 21.518 0C32.9749 0 42.2902 9.42224 42.2902 20.9969C42.2902 32.5716 32.9688 42 21.518 42ZM21.518 1.78644C11.0368 1.78644 2.50707 10.4085 2.50707 21.0031C2.50707 31.5977 11.0368 40.2198 21.518 40.2198C31.9992 40.2198 40.529 31.5977 40.529 21.0031C40.529 10.4085 31.9992 1.78644 21.518 1.78644Z" fill="white"/>
<path fill-rule="evenodd" clip-rule="evenodd" d="M30.2687 20.5503C30.1521 15.8919 26.3536 12.1453 21.6775 12.1453C17.0015 12.1453 13.295 15.7988 13.0925 20.389C13.0925 20.5131 13.0864 20.6433 13.0864 20.7674C13.0864 22.3988 13.5344 23.9185 14.3198 25.2211L12.7734 29.8485L17.5354 28.3163C18.7688 28.9987 20.1802 29.3895 21.6898 29.3895C26.4395 29.3895 30.2871 25.5312 30.2871 20.7674C30.2871 20.693 30.2871 20.6185 30.2871 20.5503M26.507 24.1976C26.3106 24.7683 25.3165 25.3141 24.8747 25.3513C24.4328 25.3948 24.4328 25.7173 21.9659 24.7497C19.5052 23.7696 17.9527 21.2388 17.8361 21.0837C17.744 20.9597 17.2163 20.2587 16.9708 19.4027C16.8972 19.136 16.8481 18.8569 16.8481 18.5778C16.8481 17.3806 17.474 16.7913 17.6949 16.5494C17.9158 16.3075 18.1797 16.2455 18.3393 16.2455C18.4988 16.2455 18.6645 16.2703 18.7995 16.2703C18.9345 16.2703 19.1493 16.1896 19.3456 16.6735C19.5482 17.1573 20.0329 18.3545 20.0943 18.4785C20.1557 18.6026 20.1925 18.739 20.1127 18.9003C20.0575 19.0182 20.0145 19.0988 19.9593 19.1918C19.9348 19.2291 19.9041 19.2663 19.8734 19.3097C19.7507 19.4524 19.6218 19.6261 19.5052 19.7315C19.3825 19.8556 19.2597 19.9858 19.4009 20.2277C19.542 20.4696 20.0268 21.2636 20.7448 21.9025C21.6714 22.7337 22.4507 22.988 22.6901 23.1059C22.9355 23.2299 23.0705 23.2113 23.2178 23.0439C23.3589 22.8826 23.8253 22.3367 23.9849 22.0948C24.1444 21.8529 24.3101 21.8901 24.531 21.9708C24.7519 22.0514 25.9424 22.6407 26.1879 22.7585C26.4272 22.8826 26.5867 22.9384 26.6481 23.0377C26.7095 23.1431 26.7095 23.6269 26.507 24.1914" fill="white"/>
</svg>
