<svg width="16" height="22" viewBox="0 0 16 22" fill="none" xmlns="http://www.w3.org/2000/svg">
<path d="M8.8644 0.364806C8.63904 0.131221 8.33343 0 8.01477 0C7.69611 0 7.3905 0.131221 7.16514 0.364806L0.366878 7.41331C0.252099 7.52825 0.160548 7.66574 0.0975657 7.81775C0.0345836 7.96977 0.00143196 8.13327 4.53734e-05 8.29871C-0.00134122 8.46415 0.0290652 8.62822 0.0894899 8.78134C0.149915 8.93447 0.239148 9.07358 0.351983 9.19057C0.464817 9.30756 0.598994 9.40008 0.746684 9.46273C0.894373 9.52538 1.05262 9.5569 1.21219 9.55547C1.37175 9.55403 1.52944 9.51966 1.67606 9.45436C1.82268 9.38906 1.95529 9.29413 2.06614 9.17513L6.81302 4.25351V20.754C6.81302 21.0845 6.93964 21.4014 7.16501 21.6351C7.39038 21.8687 7.69604 22 8.01477 22C8.33349 22 8.63916 21.8687 8.86453 21.6351C9.0899 21.4014 9.21651 21.0845 9.21651 20.754V4.25351L13.9634 9.17513C14.19 9.40209 14.4936 9.52768 14.8087 9.52484C15.1238 9.522 15.4252 9.39097 15.648 9.15995C15.8708 8.92894 15.9972 8.61643 16 8.28974C16.0027 7.96304 15.8816 7.64831 15.6627 7.41331L8.8644 0.364806Z" fill="white"/>
</svg>
