<svg width="42" height="42" viewBox="0 0 42 42" fill="none" xmlns="http://www.w3.org/2000/svg">
<path d="M21.0623 42C9.60541 42 0.290161 32.5778 0.290161 20.9969C0.290161 9.41604 9.60541 0 21.0623 0C32.5192 0 41.8344 9.42224 41.8344 20.9969C41.8344 32.5716 32.5131 42 21.0623 42ZM21.0623 1.78644C10.5811 1.78644 2.05134 10.4085 2.05134 21.0031C2.05134 31.5977 10.5811 40.2198 21.0623 40.2198C31.5435 40.2198 40.0732 31.5977 40.0732 21.0031C40.0732 10.4085 31.5435 1.78644 21.0623 1.78644Z" fill="white"/>
<path d="M24.0569 24.9358V17.3682C24.0569 17.3682 24.9528 18.8817 28.2482 18.8817V16.1586C25.5542 16.1586 24.3576 14.0434 24.3576 12.226H21.363V25.798C18.6875 28.8808 15.0976 25.6739 17.2147 22.864C17.8959 22.3367 18.6077 22.1568 19.2397 22.2313C19.4177 22.2499 19.5711 22.1196 19.5711 21.9397V19.7935C19.5711 19.6385 19.4546 19.5082 19.3073 19.502C18.0247 19.4214 16.6133 19.8121 15.2449 20.8666C12.0478 25.1094 14.9687 29.7802 18.9759 29.7802C21.7864 29.7802 24.0631 27.479 24.0631 24.638" fill="white"/>
</svg>
