<svg width="43" height="42" viewBox="0 0 43 42" fill="none" xmlns="http://www.w3.org/2000/svg">
<path d="M21.3164 42C9.85955 42 0.544312 32.5778 0.544312 20.9969C0.544312 9.41604 9.86569 0 21.3164 0C32.7672 0 42.0886 9.42224 42.0886 20.9969C42.0886 32.5716 32.7672 42 21.3164 42ZM21.3164 1.78644C10.8353 1.78644 2.3055 10.4085 2.3055 21.0031C2.3055 31.5977 10.8353 40.2198 21.3164 40.2198C31.7976 40.2198 40.3274 31.5977 40.3274 21.0031C40.3274 10.4085 31.7976 1.78644 21.3164 1.78644Z" fill="white"/>
<path d="M22.5683 25.37C21.4024 25.2769 20.9115 24.6938 19.991 24.1294C19.4878 26.8028 18.8742 29.3584 17.0516 30.6983C16.487 26.6602 17.88 23.6331 18.5244 20.4138C17.4259 18.5405 18.6594 14.7754 20.979 15.7058C23.8325 16.8471 18.506 22.6655 22.0836 23.3912C25.8146 24.148 27.3426 16.8409 25.0229 14.4652C21.6785 11.035 15.2843 14.3846 16.0759 19.2973C16.2661 20.4945 17.4934 20.8604 16.5668 22.5166C14.4252 22.039 13.787 20.3332 13.8667 18.0567C14.0018 14.3288 17.1743 11.7235 20.3653 11.3638C24.397 10.9047 28.1833 12.8587 28.7049 16.6921C29.294 21.0217 26.8823 25.7049 22.5745 25.37" fill="white"/>
</svg>
