<svg width="43" height="42" viewBox="0 0 43 42" fill="none" xmlns="http://www.w3.org/2000/svg">
<path d="M21.6127 42C10.1558 42 0.834473 32.5778 0.834473 20.9969C0.834473 9.41604 10.1558 0 21.6127 0C33.0696 0 42.3849 9.42224 42.3849 20.9969C42.3849 32.5716 33.0635 42 21.6127 42ZM21.6127 1.78644C11.1315 1.78644 2.60179 10.4085 2.60179 21.0031C2.60179 31.5977 11.1315 40.2198 21.6127 40.2198C32.0939 40.2198 40.6237 31.5977 40.6237 21.0031C40.6237 10.4085 32.0939 1.78644 21.6127 1.78644Z" fill="white"/>
<path d="M19.0907 26.6664C19.6061 26.5609 20.048 26.3562 20.4284 26.0647C20.7598 25.8104 21.0421 25.5002 21.263 25.1219C21.6128 24.5574 21.7907 23.9247 21.7907 23.2176C21.7907 22.5104 21.6373 21.946 21.3305 21.4683C21.0237 20.9845 20.5696 20.6371 19.962 20.4138C20.3609 20.2091 20.6616 19.9796 20.8641 19.7315C21.2262 19.2911 21.4102 18.7018 21.4102 17.9699C21.4102 17.2379 21.2262 16.6549 20.8641 16.1462C20.2627 15.3212 19.238 14.8932 17.802 14.8746H12.0828V26.8339H17.4154C18.0168 26.8339 18.5752 26.778 19.0845 26.6726M14.4453 16.9464H17.0165C17.5811 16.9464 18.0475 17.0084 18.4157 17.1325C18.8391 17.3124 19.0538 17.6783 19.0538 18.2366C19.0538 18.739 18.8943 19.0926 18.5752 19.2849C18.2561 19.4834 17.8388 19.5826 17.3233 19.5826H14.4515V16.9464H14.4453ZM14.4453 24.7497V21.5614H17.354C17.8633 21.5614 18.2561 21.6358 18.5384 21.7661C19.0416 21.9956 19.2932 22.4236 19.2932 23.0501C19.2932 23.7882 19.0354 24.2845 18.5138 24.545C18.2315 24.6876 17.8265 24.7559 17.3172 24.7559H14.4453V24.7497Z" fill="white"/>
<path d="M23.7972 26.0399C24.687 26.7656 25.7118 27.1254 26.8778 27.1254C28.2892 27.1254 29.3876 26.6974 30.1669 25.8352C30.6701 25.2955 30.9524 24.7621 31.0138 24.2348H28.6758C28.5408 24.4953 28.3812 24.6938 28.2032 24.8427C27.878 25.1156 27.4546 25.2459 26.933 25.2459C26.4421 25.2459 26.0248 25.1342 25.675 24.9109C25.0982 24.5512 24.7975 23.9309 24.7607 23.0439H31.1304C31.1427 22.2809 31.1181 21.6978 31.0567 21.2884C30.9524 20.5937 30.7192 19.9858 30.3572 19.4586C29.9583 18.8631 29.4551 18.4289 28.8476 18.1498C28.2401 17.8706 27.5528 17.7342 26.7919 17.7342C25.5093 17.7342 24.4661 18.1436 23.6622 18.9623C22.8584 19.7811 22.4595 20.9535 22.4595 22.4856C22.4595 24.1232 22.9074 25.3017 23.7911 26.0275M25.4296 20.1595C25.7548 19.8245 26.2089 19.6571 26.7919 19.6571C27.3319 19.6571 27.786 19.8183 28.148 20.1347C28.5101 20.451 28.7187 20.9163 28.7556 21.5304H24.8159C24.9018 20.9535 25.1043 20.5007 25.4234 20.1595" fill="white"/>
<path d="M29.2159 15.5569H24.0735V16.7665H29.2159V15.5569Z" fill="white"/>
</svg>
