<svg width="42" height="42" viewBox="0 0 42 42" fill="none" xmlns="http://www.w3.org/2000/svg">
<path d="M20.9676 42C9.5107 42 0.189331 32.5778 0.189331 20.9969C0.189331 9.41604 9.5107 0 20.9676 0C32.4245 0 41.7397 9.42224 41.7397 20.9969C41.7397 32.5716 32.4183 42 20.9676 42ZM20.9676 1.78644C10.4864 1.78644 1.95663 10.4085 1.95663 21.0031C1.95663 31.5977 10.4864 40.2198 20.9676 40.2198C31.4488 40.2198 39.9785 31.5977 39.9785 21.0031C39.9785 10.4085 31.4488 1.78644 20.9676 1.78644Z" fill="white"/>
<path d="M29.4421 22.8516V29.1848H25.8093V23.2796C25.8093 21.7971 25.2877 20.786 23.9683 20.786C22.9619 20.786 22.3667 21.4683 22.1028 22.1258C22.0046 22.3615 21.9801 22.6903 21.9801 23.0191V29.1848H18.3473C18.3473 29.1848 18.3963 19.1794 18.3473 18.1436H21.9801V19.7067C21.9801 19.7067 21.9616 19.7315 21.9555 19.7439H21.9801V19.7067C22.4648 18.9561 23.324 17.883 25.2508 17.883C27.6379 17.883 29.4298 19.4586 29.4298 22.8516M14.5549 12.8152C13.3092 12.8152 12.4991 13.6402 12.4991 14.7257C12.4991 15.8113 13.2908 16.6362 14.5058 16.6362H14.5303C15.7945 16.6362 16.5861 15.7864 16.5861 14.7257C16.5615 13.6402 15.8006 12.8152 14.5549 12.8152ZM12.7139 29.1848H16.3467V18.1436H12.7139V29.1848Z" fill="white"/>
</svg>
