<svg width="42" height="42" viewBox="0 0 42 42" fill="none" xmlns="http://www.w3.org/2000/svg">
<path d="M21.1631 42C9.70617 42 0.384766 32.5778 0.384766 20.9969C0.384766 9.41604 9.70617 0 21.1631 0C32.62 0 41.9352 9.42224 41.9352 20.9969C41.9352 32.5716 32.6138 42 21.1631 42ZM21.1631 1.78644C10.6819 1.78644 2.15209 10.4085 2.15209 21.0031C2.15209 31.5977 10.6819 40.2198 21.1631 40.2198C31.6442 40.2198 40.174 31.5977 40.174 21.0031C40.174 10.4085 31.6442 1.78644 21.1631 1.78644Z" fill="white"/>
<path d="M21.163 11.3017C15.861 11.3017 11.5654 15.6438 11.5654 21.0031C11.5654 26.3624 15.861 30.7045 21.163 30.7045C26.4649 30.7045 30.7605 26.3624 30.7605 21.0031C30.7605 15.6438 26.4649 11.3017 21.163 11.3017ZM25.5751 25.3141C25.3849 25.6057 25.0474 25.6987 24.759 25.5064C22.5069 24.0984 19.6718 23.8068 16.3151 24.5822C15.9776 24.6814 15.6892 24.4395 15.5971 24.148C15.4989 23.8068 15.7444 23.5153 16.0267 23.4222C19.6718 22.5973 22.8382 22.9384 25.3358 24.4891C25.6733 24.6318 25.7224 25.0226 25.5751 25.3141ZM26.7288 22.6469C26.4894 22.988 26.0599 23.1307 25.7224 22.8888C23.1328 21.2884 19.1993 20.8046 16.174 21.7723C15.7874 21.8715 15.3578 21.673 15.2596 21.2884C15.1614 20.9039 15.3578 20.4634 15.7383 20.3704C19.2422 19.3035 23.5562 19.837 26.5324 21.6792C26.8208 21.8219 26.962 22.3119 26.7227 22.6469M26.8208 19.93C23.7526 18.0877 18.6163 17.8954 15.6892 18.8135C15.2105 18.9561 14.7319 18.6708 14.5846 18.2304C14.4434 17.7466 14.7257 17.2627 15.1614 17.1139C18.5672 16.0966 24.1821 16.2889 27.7352 18.4227C28.1647 18.6646 28.312 19.2477 28.0727 19.6819C27.8333 20.023 27.2565 20.1657 26.827 19.9238" fill="white"/>
</svg>
