<svg width="42" height="42" viewBox="0 0 42 42" fill="none" xmlns="http://www.w3.org/2000/svg">
<path d="M20.7721 42C9.32138 42 0 32.5778 0 20.9969C0 9.41604 9.32138 0 20.7721 0C32.2229 0 41.5443 9.42224 41.5443 20.9969C41.5443 32.5716 32.2229 42 20.7721 42ZM20.7721 1.78644C10.2909 1.78644 1.76732 10.4023 1.76732 20.9969C1.76732 31.5915 10.2971 40.2136 20.7783 40.2136C31.2595 40.2136 39.7892 31.5915 39.7892 20.9969C39.7892 10.4023 31.2594 1.78644 20.7721 1.78644Z" fill="white"/>
<path d="M28.406 17.1697C28.363 16.2455 28.2096 15.743 28.0808 15.4081C27.9089 14.9677 27.7064 14.6513 27.3812 14.3164C27.056 13.9814 26.743 13.7767 26.3073 13.6092C25.9759 13.479 25.4789 13.3239 24.5645 13.2805C23.5766 13.237 23.282 13.2246 20.7783 13.2246C18.2746 13.2246 17.98 13.237 16.9921 13.2805C16.0777 13.3239 15.5807 13.479 15.2493 13.6092C14.8136 13.7829 14.5006 13.9876 14.1693 14.3164C13.8379 14.6451 13.6415 14.9615 13.4697 15.4081C13.3408 15.743 13.1874 16.2455 13.1445 17.1697C13.1015 18.1684 13.0892 18.4661 13.0892 20.9969C13.0892 23.5277 13.1015 23.8254 13.1445 24.8241C13.1874 25.7483 13.3408 26.2508 13.4697 26.5857C13.6415 27.0261 13.844 27.3425 14.1693 27.6775C14.5006 28.0062 14.8075 28.2109 15.2493 28.3846C15.5807 28.5148 16.0777 28.6699 16.9921 28.7133C17.98 28.7568 18.2746 28.7692 20.7783 28.7692C23.282 28.7692 23.5766 28.7568 24.5645 28.7133C25.4789 28.6699 25.9759 28.5148 26.3073 28.3846C26.743 28.2109 27.056 28.0062 27.3812 27.6775C27.7064 27.3425 27.9151 27.0323 28.0808 26.5857C28.2096 26.2508 28.363 25.7483 28.406 24.8241C28.449 23.8254 28.4612 23.5277 28.4612 20.9969C28.4612 18.4661 28.449 18.1684 28.406 17.1697ZM20.7722 25.8662C18.115 25.8662 15.9611 23.689 15.9611 21.0031C15.9611 18.3172 18.115 16.14 20.7722 16.14C23.4293 16.14 25.5832 18.3172 25.5832 21.0031C25.5832 23.689 23.4293 25.8662 20.7722 25.8662ZM25.7796 17.0829C25.1598 17.0829 24.6566 16.5742 24.6566 15.9477C24.6566 15.3212 25.1598 14.8126 25.7796 14.8126C26.3994 14.8126 26.9025 15.3212 26.9025 15.9477C26.9025 16.5742 26.3994 17.0829 25.7796 17.0829Z" fill="white"/>
<path d="M20.7722 17.8396C19.0478 17.8396 17.6487 19.2539 17.6487 20.9969C17.6487 22.7399 19.0478 24.1542 20.7722 24.1542C22.4965 24.1542 23.8957 22.7399 23.8957 20.9969C23.8957 19.2539 22.4965 17.8396 20.7722 17.8396Z" fill="white"/>
</svg>
