<svg width="26" height="26" viewBox="0 0 26 26" fill="none" xmlns="http://www.w3.org/2000/svg">
<path d="M8.87996 6.7759C9.11886 6.78245 9.38388 6.79556 9.63583 7.3565C9.80294 7.73002 10.0836 8.41809 10.3134 8.97903C10.4922 9.41546 10.6384 9.77456 10.675 9.84796C10.7585 10.0157 10.8108 10.2084 10.7011 10.4351L10.6646 10.5111C10.5897 10.6872 10.4885 10.8508 10.3643 10.996C10.3012 11.0696 10.239 11.1438 10.1776 11.2189C10.0666 11.3552 9.95568 11.4888 9.86168 11.5832C9.69328 11.751 9.51965 11.9318 9.71286 12.2673C9.90737 12.6028 10.5849 13.7064 11.5862 14.5963C12.3191 15.2587 13.1593 15.7906 14.0706 16.169C14.1619 16.2083 14.2363 16.2411 14.2925 16.2686C14.628 16.4364 14.8277 16.4102 15.0209 16.1847C15.2155 15.958 15.8604 15.2031 16.0875 14.8676C16.3068 14.5321 16.5314 14.5845 16.8421 14.6998C17.1528 14.8165 18.8055 15.6303 19.141 15.7968L19.3277 15.8885C19.5614 15.9999 19.7194 16.0773 19.7873 16.19C19.8708 16.3328 19.8708 17.0025 19.594 17.7915C19.3094 18.5779 17.94 19.3328 17.3199 19.3905L17.1437 19.4114C16.5745 19.4796 15.8538 19.5687 13.2847 18.553C10.1176 17.3027 8.02748 14.2018 7.60581 13.574C7.5833 13.5404 7.56024 13.5072 7.53662 13.4744L7.52879 13.4639C7.33688 13.2057 6.16064 11.6264 6.16064 9.99606C6.16064 8.43644 6.92696 7.62386 7.27553 7.25427L7.33688 7.18874C7.44971 7.06079 7.58756 6.95752 7.74185 6.88537C7.89615 6.81322 8.06359 6.77372 8.23375 6.76935C8.4596 6.76935 8.68675 6.76935 8.87996 6.7759Z" fill="white"/>
<path fill-rule="evenodd" clip-rule="evenodd" d="M0.130548 25.3354C0.105948 25.4242 0.105129 25.518 0.128173 25.6073C0.151217 25.6965 0.197308 25.7781 0.261796 25.8438C0.326283 25.9095 0.406884 25.9569 0.495466 25.9813C0.584047 26.0057 0.677474 26.0062 0.766317 25.9828L6.78067 24.4048C8.68886 25.4425 10.8246 25.9861 12.9948 25.9867H13C20.1618 25.9867 26 20.1585 26 12.996C26.0045 11.2877 25.6705 9.59551 25.0174 8.01801C24.3643 6.4405 23.4052 5.00918 22.1958 3.80737C20.9887 2.59543 19.5548 1.63512 17.9766 0.981701C16.3984 0.328286 14.7071 -0.00532677 13 6.43092e-05C5.83811 6.43092e-05 0 5.82701 0 12.9895C0 15.2686 0.59791 17.5071 1.73629 19.4822L0.130548 25.3354ZM3.62532 20.0038C3.69435 19.7523 3.71281 19.4895 3.67964 19.2307C3.64647 18.972 3.56232 18.7224 3.43211 18.4966C2.46622 16.8233 1.95778 14.9235 1.95822 12.9895C1.95822 6.92137 6.90991 1.96597 13 1.96597C15.9634 1.96597 18.7284 3.11537 20.8146 5.20054C21.8411 6.21972 22.6552 7.43395 23.2093 8.77238C23.7633 10.1108 24.0463 11.5466 24.0417 12.996C24.0417 19.0641 19.09 24.0208 13 24.0208H12.9934C11.1497 24.0199 9.33527 23.5577 7.71409 22.6761C7.27712 22.4387 6.76658 22.3768 6.28589 22.5031L2.68015 23.4481L3.62532 20.0038Z" fill="white"/>
</svg>
