<svg width="42" height="42" viewBox="0 0 42 42" fill="none" xmlns="http://www.w3.org/2000/svg">
<path d="M20.8606 42C9.40375 42 0.088501 32.5778 0.088501 20.9969C0.088501 9.41604 9.40988 0 20.8606 0C32.3114 0 41.6389 9.42224 41.6389 20.9969C41.6389 32.5716 32.3175 42 20.8606 42ZM20.8606 1.78644C10.3795 1.78644 1.84969 10.4085 1.84969 21.0031C1.84969 31.5977 10.3795 40.2198 20.8606 40.2198C31.3418 40.2198 39.8716 31.5977 39.8716 21.0031C39.8716 10.4085 31.3418 1.78644 20.8606 1.78644Z" fill="white"/>
<path d="M18.6944 29.6934H22.1615V20.9225H24.5793L24.8371 17.9885H22.1615V16.3137C22.1615 15.619 22.2965 15.346 22.9593 15.346H24.8371V12.3004H22.4377C19.8603 12.3004 18.6944 13.4479 18.6944 15.6438V17.9823H16.8903V20.9535H18.6944V29.6872V29.6934Z" fill="white"/>
</svg>
