<svg width="43" height="42" viewBox="0 0 43 42" fill="none" xmlns="http://www.w3.org/2000/svg">
<path d="M21.411 42C9.95415 42 0.638916 32.5778 0.638916 20.9969C0.638916 9.41604 9.96029 0 21.411 0C32.8618 0 42.1893 9.42224 42.1893 20.9969C42.1893 32.5716 32.8679 42 21.411 42ZM21.411 1.78644C10.9299 1.78644 2.4001 10.4085 2.4001 21.0031C2.4001 31.5977 10.9299 40.2198 21.411 40.2198C31.8922 40.2198 40.422 31.5977 40.422 21.0031C40.422 10.4085 31.8922 1.78644 21.411 1.78644Z" fill="white"/>
<path d="M29.9163 18.8631C29.8856 18.2366 29.8672 17.6163 29.7199 17.0022C29.4867 16.0594 28.9344 15.4453 27.9894 15.2034C27.6764 15.1227 27.3635 15.0669 27.0382 15.0483C25.1666 14.9491 23.295 14.856 21.3681 14.8684C19.9567 14.856 18.4962 14.9118 17.0418 14.9863C16.3791 15.0173 15.7102 15.0173 15.0536 15.1538C14.1454 15.3398 13.4827 15.8113 13.182 16.7355C13.0592 17.1139 12.9856 17.4985 12.9611 17.8954C12.912 18.7266 12.869 19.5578 12.8383 20.389C12.7892 21.8591 12.8261 23.3292 13.0592 24.7807C13.2249 25.8166 13.7711 26.4989 14.7959 26.7656C15.1825 26.8649 15.5752 26.9269 15.968 26.9517C17.275 27.0324 18.5821 27.0882 19.8892 27.1192C21.8345 27.1626 23.7798 27.113 25.7189 27.0137C26.4246 26.9765 27.1303 26.9579 27.8237 26.809C28.8608 26.5919 29.5174 25.9965 29.7138 24.9172C29.8794 24.0053 29.9531 23.0811 29.9776 22.1569C30.0083 21.0589 29.9592 19.961 29.904 18.8631M19.0424 24.3341V17.6597C20.9324 18.7763 22.7979 19.8742 24.7064 20.9969C22.8102 22.1134 20.9447 23.2176 19.0424 24.3341Z" fill="white"/>
</svg>
