<svg width="42" height="42" viewBox="0 0 42 42" fill="none" xmlns="http://www.w3.org/2000/svg">
<path d="M20.7783 42C9.32141 42 0 32.5778 0 20.9969C0 9.41604 9.32141 0 20.7783 0C32.2352 0 41.5504 9.42224 41.5504 20.9969C41.5504 32.5716 32.229 42 20.7783 42ZM20.7783 1.78644C10.2971 1.78644 1.76732 10.4085 1.76732 21.0031C1.76732 31.5977 10.2971 40.2198 20.7783 40.2198C31.2595 40.2198 39.7892 31.5977 39.7892 21.0031C39.7892 10.4085 31.2595 1.78644 20.7783 1.78644Z" fill="#FFD530"/>
<path d="M18.81 28H10.62V15.4H18.81V17.254H12.924V20.908H18.054V22.744H12.924V26.164H18.81V28ZM29.8575 28L23.6115 19.504V28H21.3075V15.4H23.0535L29.2815 23.842V15.4H31.5855V28H29.8575Z" fill="#FFD530"/>
</svg>
