<svg width="42" height="42" viewBox="0 0 42 42" fill="none" xmlns="http://www.w3.org/2000/svg">
<path d="M20.7783 42C9.32141 42 0 32.5778 0 20.9969C0 9.41604 9.32141 0 20.7783 0C32.2352 0 41.5504 9.42224 41.5504 20.9969C41.5504 32.5716 32.229 42 20.7783 42ZM20.7783 1.78644C10.2971 1.78644 1.76732 10.4085 1.76732 21.0031C1.76732 31.5977 10.2971 40.2198 20.7783 40.2198C31.2595 40.2198 39.7892 31.5977 39.7892 21.0031C39.7892 10.4085 31.2595 1.78644 20.7783 1.78644Z" fill="#FFD530"/>
<path d="M13.924 28H11.62V15.4H16.912C19.432 15.4 20.854 17.272 20.854 19.45C20.854 21.61 19.414 23.392 16.912 23.392H13.924V28ZM13.924 21.574H16.552C17.758 21.574 18.496 20.692 18.496 19.432C18.496 18.136 17.758 17.254 16.552 17.254H13.924V21.574ZM21.7858 15.4H31.8298V17.254H27.9418V28H25.6378V17.254H21.7858V15.4Z" fill="#FFD530"/>
</svg>
